solid cube
 facet normal 1.9274705288631192e-17 -0.2955202066613396 0.9553364891256061
  outer loop
   vertex 0.34050720449172966 0.21307144353134688 0.09721711597465821
   vertex 0.8931438008934607 0.43628677469670263 0.1662657093727194
   vertex 0.6594927955082703 0.9642406804654569 0.32958099054997825
  endloop
 endfacet
 facet normal 0.0 -0.2955202066613396 0.9553364891256061
  outer loop
   vertex 0.34050720449172966 0.21307144353134688 0.09721711597465821
   vertex 0.6594927955082703 0.9642406804654569 0.32958099054997825
   vertex 0.10685619910653932 0.7410253493001011 0.26053239715191706
  endloop
 endfacet
 facet normal 5.782411586589356e-17 0.2955202066613396 -0.9553364891256061
  outer loop
   vertex 0.34050720449172966 0.035759319534543144 0.6704190094500218
   vertex 0.6594927955082703 0.7869285564686532 0.9027828840253419
   vertex 0.8931438008934607 0.2589746506998989 0.739467602848083
  endloop
 endfacet
 facet normal 0.0 0.29552020666133966 -0.955336489125606
  outer loop
   vertex 0.34050720449172966 0.035759319534543144 0.6704190094500218
   vertex 0.10685619910653932 0.5637132253032974 0.8337342906272807
   vertex 0.6594927955082703 0.7869285564686532 0.9027828840253419
  endloop
 endfacet
 facet normal -0.3894183423086505 0.879923176281257 0.27219213529543146
  outer loop
   vertex 0.34050720449172966 0.21307144353134688 0.09721711597465821
   vertex 0.34050720449172966 0.035759319534543144 0.6704190094500218
   vertex 0.8931438008934607 0.2589746506998989 0.739467602848083
  endloop
 endfacet
 facet normal -0.3894183423086505 0.8799231762812572 0.27219213529543146
  outer loop
   vertex 0.34050720449172966 0.21307144353134688 0.09721711597465821
   vertex 0.8931438008934607 0.2589746506998989 0.739467602848083
   vertex 0.8931438008934607 0.43628677469670263 0.1662657093727194
  endloop
 endfacet
 facet normal -0.9210609940028851 -0.3720255519422596 -0.11508098899676869
  outer loop
   vertex 0.8931438008934607 0.43628677469670263 0.1662657093727194
   vertex 0.8931438008934607 0.2589746506998989 0.739467602848083
   vertex 0.6594927955082703 0.7869285564686532 0.9027828840253419
  endloop
 endfacet
 facet normal -0.9210609940028851 -0.3720255519422596 -0.11508098899676864
  outer loop
   vertex 0.8931438008934607 0.43628677469670263 0.1662657093727194
   vertex 0.6594927955082703 0.7869285564686532 0.9027828840253419
   vertex 0.6594927955082703 0.9642406804654569 0.32958099054997825
  endloop
 endfacet
 facet normal 0.3894183423086507 -0.8799231762812572 -0.2721921352954313
  outer loop
   vertex 0.6594927955082703 0.9642406804654569 0.32958099054997825
   vertex 0.6594927955082703 0.7869285564686532 0.9027828840253419
   vertex 0.10685619910653932 0.5637132253032974 0.8337342906272807
  endloop
 endfacet
 facet normal 0.3894183423086504 -0.8799231762812572 -0.2721921352954314
  outer loop
   vertex 0.6594927955082703 0.9642406804654569 0.32958099054997825
   vertex 0.10685619910653932 0.5637132253032974 0.8337342906272807
   vertex 0.10685619910653932 0.7410253493001011 0.26053239715191706
  endloop
 endfacet
 facet normal 0.9210609940028851 0.37202555194225967 0.1150809889967687
  outer loop
   vertex 0.10685619910653932 0.7410253493001011 0.26053239715191706
   vertex 0.10685619910653932 0.5637132253032974 0.8337342906272807
   vertex 0.34050720449172966 0.035759319534543144 0.6704190094500218
  endloop
 endfacet
 facet normal 0.9210609940028851 0.37202555194225967 0.11508098899676873
  outer loop
   vertex 0.10685619910653932 0.7410253493001011 0.26053239715191706
   vertex 0.34050720449172966 0.035759319534543144 0.6704190094500218
   vertex 0.34050720449172966 0.21307144353134688 0.09721711597465821
  endloop
 endfacet
endsolid cube
